<svg aria-hidden="true" style="position:absolute;width:0;height:0" xmlns="http://www.w3.org/2000/svg" overflow="hidden"><defs><symbol id="mail" viewBox="0 0 43 32"><path d="M38.661 0H3.994c-2.205 0-4 1.795-4 4v24c0 2.205 1.795 4 4 4h34.667c2.205 0 4-1.795 4-4V4c0-2.205-1.795-4-4-4zm0 2.667c.181 0 .355.037.512.104L21.328 18.238 3.483 2.771c.151-.065.327-.104.512-.104h34.667zm0 26.666H3.994A1.333 1.333 0 012.661 28V5.587l17.792 15.421c.233.203.539.327.875.327s.642-.124.876-.328l-.002.001L39.994 5.587V28c0 .736-.597 1.333-1.333 1.333z"/></symbol><symbol id="smartphone" viewBox="0 0 20 32"><path d="M17 0H3C1.346 0 0 1.346 0 3v26c0 1.654 1.346 3 3 3h14c1.654 0 3-1.346 3-3V3c0-1.654-1.346-3-3-3zM3 2h14a1 1 0 011 1v21H2V3a1 1 0 011-1zm14 28H3a1 1 0 01-1-1v-3h16v3a1 1 0 01-1 1z"/><path d="M4.708 27.478a.889.889 0 01.001 1.319l-.001.001a1.048 1.048 0 01-1.417 0l.001.001a.889.889 0 01-.001-1.319l.001-.001a1.048 1.048 0 011.417 0l-.001-.001z"/></symbol><symbol id="antenna" viewBox="0 0 32 32"><path fill="var(--color1, #212121)" d="M30.773 22.098l-8.443-8.505.937-4.616c.225.09.485.144.758.146h.033a2.16 2.16 0 10-2.029-1.42l-.005-.015-4.96.606L8.973.161a.53.53 0 00-.376-.16.536.536 0 00-.373.155L6.712 1.66a.535.535 0 000 .754l.814.825C6.383 5.301 5.71 7.761 5.71 10.378c0 4.106 1.656 7.824 4.336 10.525l-.001-.001a.49.49 0 00.146.097 2.986 2.986 0 00-.052.546v6.188h-6.4a2.669 2.669 0 00-2.667 2.666v1.067c0 .295.239.534.534.534H26.14a.534.534 0 00.533-.534v-1.067a2.67 2.67 0 00-2.666-2.666h-6.4v-2.742a14.784 14.784 0 0010.166-1.502l-.077.039.818.823a.534.534 0 00.376.16.536.536 0 00.373-.155l1.512-1.504a.535.535 0 000-.754zM23.28 6.233a1.067 1.067 0 11.752 1.823h-.004a1.066 1.066 0 01-.747-1.822h-.002zm-1.256 3.504l-.598 2.946-1.175-1.183 1.774-1.763zm-.605-.902l-1.92 1.909-1.486-1.493 3.406-.416zM24.004 28.8a1.6 1.6 0 011.6 1.6v.534H2.138V30.4a1.6 1.6 0 011.6-1.6h20.267zm-7.466-2.134v1.067h-5.334v-1.067h5.334zM11.204 25.6v-4.053c0-1.294 1.196-2.346 2.667-2.346s2.667 1.053 2.667 2.346V25.6h-5.334zm6.4-1.696v-2.357c0-1.882-1.675-3.413-3.733-3.413h-.058c-1.353 0-2.54.707-3.213 1.771l-.009.016a13.817 13.817 0 01-3.812-9.55c0-2.314.567-4.496 1.569-6.414l-.036.077 18.602 18.709c-1.823.947-3.979 1.502-6.266 1.502-1.079 0-2.128-.124-3.136-.357l.093.018zm11.289-.684L7.836 2.039l.754-.752 7.935 7.98c.004 0 .006.007.01.01l13.114 13.191-.757.752z"/><path fill="var(--color2, #2196f3)" d="M13.876 20.266h-.007a1.6 1.6 0 00-.003 3.2h.007a1.6 1.6 0 00.002-3.2zm.373 1.979a.534.534 0 11-.378-.912.533.533 0 01.374.911h.005z"/></symbol><symbol id="clock" viewBox="0 0 32 32"><path fill="var(--color1, #212121)" d="M31.304 15.301C31.303 6.849 24.449-.002 15.996 0S.693 6.855.695 15.308c.002 6.788 4.422 12.542 10.541 14.545l.108.031a.667.667 0 00.529-.065.636.636 0 00.283-.357l3.865-12.25a1.913 1.913 0 10-.852-3.63l.011-.005-5.106-5.107a.638.638 0 00-.902.902l5.103 5.109a1.847 1.847 0 00-.191.826c0 .602.283 1.137.723 1.48l.004.003-3.682 11.673C3.851 25.782.125 17.709 2.806 10.431S13.56-.573 20.838 2.108c7.278 2.681 11.004 10.754 8.323 18.031-1.345 3.581-4.003 6.406-7.374 7.938l-.088.036-.398-1.874a.639.639 0 00-1.05-.343l.001-.001-3.837 3.426a.637.637 0 00.227 1.083l.005.001 4.899 1.563a.637.637 0 00.818-.744l.001.004-.391-1.839c5.528-2.374 9.328-7.771 9.328-14.056v-.034.002zM16 14.664a.638.638 0 010 1.276.638.638 0 010-1.276zm2.1 14.863l2.184-1.948.603 2.84-2.787-.892z"/><path fill="var(--color2, #2196f3)" d="M15.362 3.185V4.46a.638.638 0 001.276 0V3.185a.638.638 0 10-1.276 0zM3.884 14.664a.638.638 0 000 1.276h1.275a.638.638 0 000-1.276H3.884zm24.232 1.275a.638.638 0 000-1.276h-1.275a.638.638 0 000 1.276h1.275z"/></symbol><symbol id="diagram" viewBox="0 0 32 32"><path fill="var(--color2, #2196f3)" d="M14.926 14.945h1.066v4.798h-1.066v-4.798zm4.264 2.133h1.066v2.665H19.19v-2.665zm-8.529 1.599h1.066v1.066h-1.066v-1.066zm-3.198-.534h1.066v1.599H7.463v-1.599z"/><path fill="var(--color1, #212121)" d="M1.599 28.271h25.586a1.6 1.6 0 001.599-1.599V24.54a1.6 1.6 0 00-1.599-1.599h-.533V9.647l3.028-2.868a1.608 1.608 0 10-.742-.752l-.004-.01-2.281 2.162v-1.23a1.6 1.6 0 00-1.599-1.599H3.731a1.6 1.6 0 00-1.599 1.599v15.992h-.533A1.6 1.6 0 000 24.54v2.132a1.6 1.6 0 001.599 1.599zM30.384 4.817a.533.533 0 010 1.066.533.533 0 010-1.066zM3.198 6.949c0-.294.239-.533.533-.533h21.323c.294 0 .533.239.533.533v2.239l-1.066 1.013V8.016a.534.534 0 00-.534-.534H4.798a.534.534 0 00-.534.533v13.327c0 .294.239.533.534.533h19.189a.534.534 0 00.534-.533v-9.675l1.066-1.01V22.94H3.198V6.949zm4.798 6.93h-.005a1.6 1.6 0 101.112 2.748l1.853.93a.535.535 0 00.636-.122l3.939-4.432 3.872 2.902a.534.534 0 00.686-.039l3.365-3.188v8.131H5.331V8.548h18.123v2.661l-3.771 3.572-3.904-2.927a.534.534 0 00-.718.071v.001l-3.993 4.493-1.493-.746c.011-.064.017-.128.02-.193a1.6 1.6 0 00-1.599-1.599zm.533 1.599a.533.533 0 01-1.066 0 .533.533 0 011.066 0zm3.198 8.529h5.33v.533a.533.533 0 01-.533.533h-4.265a.533.533 0 01-.533-.533v-.533zm-10.66.533c0-.294.238-.533.533-.533h9.062v.533a1.6 1.6 0 001.599 1.599h4.265a1.6 1.6 0 001.599-1.599v-.533h9.062c.294 0 .533.239.533.533v2.132a.533.533 0 01-.533.533H1.601a.533.533 0 01-.533-.533V24.54z"/></symbol><symbol id="astronaut" viewBox="0 0 32 32"><path fill="var(--color2, #2196f3)" d="M31.974 4.524a.535.535 0 00-.427-.362h-.003l-1.911-.278-.855-1.731c-.179-.365-.777-.365-.956 0l-.855 1.731-1.911.278a.534.534 0 00-.296.91l1.383 1.348-.326 1.903a.532.532 0 00.774.562l1.709-.899 1.709.899a.534.534 0 00.773-.565v.003l-.326-1.903 1.383-1.348a.535.535 0 00.134-.55l.001.004zm-2.463 1.328a.53.53 0 00-.153.472l.191 1.114-1-.526a.525.525 0 00-.501.001l.003-.001-1 .526.191-1.114a.53.53 0 00-.152-.472l-.811-.79 1.119-.162a.532.532 0 00.402-.292l.5-1.013.5 1.013a.532.532 0 00.402.292l1.119.162-.809.79zm-3.377 14.67h-1.067v1.067h1.067v-1.067zm0 2.134h-1.067v1.066h1.067v-1.066zm1.066-1.067h-1.067v1.067H27.2v-1.067zm-2.133 0H24v1.067h1.067v-1.067zm-2.667 4.8h-1.067v1.067H22.4v-1.067zm0 2.134h-1.067v1.067H22.4v-1.067zm1.067-1.067H22.4v1.067h1.067v-1.067zm-2.133 0h-1.067v1.067h1.067v-1.067zM16 24.256h-1.066v1.067H16v-1.067zm0 2.133h-1.066v1.067H16v-1.067zm1.067-1.067H16v1.067h1.067v-1.067zm-2.133 0h-1.067v1.067h1.067v-1.067zm-9.067-19.2H4.801v1.066h1.066V6.122zm0 2.134H4.801v1.066h1.066V8.256zm1.066-1.067H5.867v1.067h1.066V7.189zm-2.133 0H3.733v1.067H4.8V7.189z"/><path fill="var(--color1, #212121)" d="M24.715 14.16a1.774 1.774 0 00-1.179-.703l-.009-.001a1.769 1.769 0 00-1.344.355l.004-.003-1.253.96-1.898 1.417-1.358-.541c2.421-1.086 4.113-3.508 4.113-6.32 0-3.823-3.122-6.934-6.961-6.934S7.869 5.5 7.869 9.324c0 1.386.415 2.674 1.12 3.759l-2.768-.024c-.009 0-.016.005-.023.005a.511.511 0 00-.159.033l.004-.001c-.013.005-.026.007-.038.013-.006.003-.013.003-.019.006l-3.233 1.596-.001.001-1.893.91a.5.5 0 00-.065.036l.001-.001a1.782 1.782 0 00-.594 2.306l-.005-.01c.22.424.592.742 1.043.885l.013.003a1.772 1.772 0 001.388-.133l-.009.005 1.388-.738 2.264-1.169 1.357-.008-5.442 5.415-.001.001-1.339 1.333a1.643 1.643 0 00-.491 1.173v.005a1.668 1.668 0 001.667 1.664h.002a1.67 1.67 0 001.18-.485l1.314-1.309 1.741-1.3.901.897L4.07 27.28a1.643 1.643 0 00-.491 1.173v.004a1.662 1.662 0 001.666 1.664h.003a1.67 1.67 0 001.18-.485l4.488-4.472c.007-.006.016-.009.022-.016l5.166-5.658 3.471.494a.474.474 0 00.262-.032c.017-.006.032-.015.049-.023.019-.01.039-.015.058-.027l3.213-2.133c.012-.008.018-.021.029-.03.013-.01.029-.014.041-.026l1.271-1.191c.348-.326.564-.787.564-1.3 0-.4-.132-.769-.355-1.066l.003.005zM2.13 17.77a.706.706 0 01-.564.05l.005.001a.717.717 0 01-.215-1.258l.002-.001 1.314-.632.316.924.133.389-.992.527zm3.498-1.827l-1.548.8-.255-.746-.184-.537 2.027-1.001-.04 1.484zm15.099-6.621c0 .918-.219 1.785-.599 2.56l-4.181-1.899a1.865 1.865 0 00-.782-1.384l-.006-.004 1.464-4.861c2.377.757 4.104 2.975 4.104 5.588zm-11.789 0c0-3.235 2.644-5.867 5.894-5.867.253 0 .5.022.745.053l-1.432 4.753c-.019 0-.037-.006-.057-.006h-.001a1.872 1.872 0 00-1.872 1.867 1.873 1.873 0 001.872 1.867h.001c.695 0 1.295-.383 1.618-.944l3.863 1.755a5.891 5.891 0 01-4.737 2.39c-3.25 0-5.894-2.632-5.894-5.867zm5.957.8c0 .441-.362.8-.806.8h-.001a.804.804 0 01-.804-.8c0-.441.361-.8.806-.8s.806.359.806.8zM2.465 25.146a.606.606 0 01-.855.001.591.591 0 010-.844l.962-.959.852.848-.959.954zm3.213 3.734a.606.606 0 01-.855.001.591.591 0 010-.844l.963-.959.852.848-.96.955zm3.482-3.469l-.001.001-1.765 1.76-.852-.848 1.765-1.757a.527.527 0 00.09-.136c.007-.014.02-.026.026-.04.016-.041.019-.085.026-.128.003-.025.014-.048.014-.073 0-.035-.013-.07-.02-.105-.006-.032-.006-.064-.019-.096a.536.536 0 00-.092-.138c-.01-.012-.014-.026-.025-.038h-.001l-.001-.002-1.607-1.6c-.017-.017-.039-.024-.058-.038a.491.491 0 00-.084-.056l-.003-.001a.527.527 0 00-.09-.031l-.003-.001a.502.502 0 00-.101-.02h-.025a.603.603 0 00-.075.005h.003c-.036.005-.069.009-.104.021s-.064.027-.094.045c-.02.011-.043.015-.061.029l-1.774 1.324-.901-.897 2.399-2.386 4.36 4.289-.928.919zm6.819-7.017c-.016-.002-.03.004-.046.003l-.027-.001a.562.562 0 00-.092.008h.003a.484.484 0 00-.187.07l.002-.001a.492.492 0 00-.083.061c-.013.011-.028.016-.04.029l-4.698 5.146-4.328-4.256 2.833-2.818a.535.535 0 00-.378-.911h-.002l-2.219.013.028-1.607 3.104.027a6.928 6.928 0 004.978 2.101h.003c.438 0 .864-.046 1.28-.122.04.032.08.064.129.085l2.41.96.152.758.178.886-3.003-.427zm4.041.179l-.313-1.558 1.446-1.08.946 1.257-2.08 1.381zm3.753-2.832l-.837.785-.931-1.236.831-.637a.735.735 0 01.543-.143.718.718 0 01.621.71.71.71 0 01-.226.521z"/><path fill="var(--color1, #212121)" d="M13.602 18.544l-2.143-2.134a.53.53 0 00-.752 0l-2.143 2.133a.535.535 0 000 .756l2.142 2.134a.53.53 0 00.752 0l2.143-2.134a.532.532 0 000-.756zm-2.518 1.759l-1.387-1.381 1.386-1.381 1.387 1.381-1.387 1.381zm6.08-15.232l-.258 1.036c.071.018 1.738.452 1.738 2.149h1.067c0-2.017-1.666-2.965-2.547-3.184zm2.547 4.251h-1.067v1.066h1.067V9.322z"/></symbol><symbol id="instagram" viewBox="0 0 32 32"><path d="M31.915 9.408c-.074-1.701-.349-2.869-.742-3.882a7.839 7.839 0 00-1.85-2.837l-.001-.001A7.906 7.906 0 0026.544.861L26.49.843C25.471.449 24.309.174 22.608.101 20.896.019 20.352 0 16.006 0c-4.344 0-4.888.019-6.595.094-1.701.074-2.869.35-3.882.744a7.856 7.856 0 00-2.837 1.848l-.001.001A7.887 7.887 0 00.866 5.465l-.018.054C.453 6.538.179 7.7.104 9.401c-.082 1.712-.101 2.256-.101 6.602 0 4.344.019 4.888.094 6.595.075 1.701.35 2.869.744 3.882a7.915 7.915 0 001.849 2.837l.001.001c.8.813 1.77 1.443 2.832 1.843 1.019.395 2.182.67 3.882.744 1.707.075 2.251.094 6.595.094 4.346 0 4.888-.019 6.595-.094 1.701-.074 2.869-.349 3.882-.742a8.237 8.237 0 004.664-4.628l.019-.055c.394-1.019.669-2.182.744-3.882.075-1.707.093-2.251.093-6.595s-.006-4.888-.08-6.595zm-2.88 13.066c-.07 1.563-.333 2.406-.55 2.968a5.335 5.335 0 01-3.004 3.027l-.036.012c-.56.218-1.411.48-2.968.549-1.688.075-2.194.094-6.464.094-4.269 0-4.782-.019-6.464-.094-1.563-.069-2.406-.331-2.97-.55a4.953 4.953 0 01-1.836-1.192l-.001-.001a4.978 4.978 0 01-1.184-1.803l-.011-.034c-.218-.563-.48-1.413-.549-2.97-.075-1.688-.094-2.195-.094-6.464 0-4.27.019-4.784.094-6.464.069-1.563.331-2.406.549-2.97a4.897 4.897 0 011.198-1.837l.002-.002a4.96 4.96 0 011.806-1.182l.034-.011c.56-.218 1.411-.48 2.968-.55 1.688-.074 2.195-.093 6.464-.093 4.275 0 4.782.018 6.464.093 1.563.069 2.406.331 2.97.55a4.91 4.91 0 011.837 1.194c.531.52.938 1.144 1.195 1.84.218.56.48 1.411.549 2.968.075 1.688.094 2.194.094 6.464 0 4.269-.019 4.768-.094 6.458z"/><path d="M16.006 7.782h-.002a8.222 8.222 0 100 16.444 8.222 8.222 0 008.222-8.222v-.002a8.223 8.223 0 00-8.221-8.221zm0 13.552a5.333 5.333 0 01.001-10.666h.001a5.334 5.334 0 110 10.668zM26.472 7.458a1.92 1.92 0 01-3.84 0 1.92 1.92 0 013.84 0z"/></symbol><symbol id="twitter" viewBox="0 0 32 32"><path d="M32 6.099a13.264 13.264 0 01-3.706 1.026l-.068.007a6.543 6.543 0 002.868-3.573l.013-.046a12.84 12.84 0 01-4.068 1.57l-.084.014a6.546 6.546 0 00-11.327 4.471v.007c0 .519.045 1.019.153 1.493-5.444-.265-10.261-2.875-13.498-6.85a6.524 6.524 0 00-.894 3.31 6.553 6.553 0 002.907 5.441 6.433 6.433 0 01-2.99-.823l.032.017v.072a6.58 6.58 0 005.203 6.428l.043.008a6.38 6.38 0 01-1.659.214h-.061.003a5.805 5.805 0 01-1.276-.118l.037.006c.848 2.594 3.256 4.5 6.118 4.563a13.07 13.07 0 01-8.103 2.792h-.017.001-.087c-.522 0-1.036-.033-1.54-.096l.06.006c2.821 1.843 6.275 2.939 9.985 2.939h.063-.003c12.049 0 18.637-9.981 18.637-18.634 0-.287-.01-.569-.024-.846a13.176 13.176 0 003.252-3.35L32 6.1z"/></symbol><symbol id="facebook" viewBox="0 0 32 32"><path d="M21.078 5.312h2.923V.224A36.514 36.514 0 0019.892 0h-.155.008c-4.213 0-7.098 2.65-7.098 7.52V12H7.999v5.688h4.648V32h5.698V17.69h4.461l.707-5.688h-5.168v-3.92c0-1.643.443-2.768 2.734-2.768z"/></symbol><symbol id="linkedin" viewBox="0 0 32 32"><path d="M31.992 32H32V20.262c0-5.741-1.237-10.163-7.949-10.163-3.226 0-5.392 1.77-6.275 3.448h-.093v-2.912h-6.365v21.363h6.627V21.42c0-2.786.528-5.48 3.978-5.48 3.398 0 3.448 3.179 3.448 5.658V32h6.621zM.528 10.637h6.635V32H.528V10.637zM3.843 0A3.843 3.843 0 000 3.843c0 2.12 1.722 3.878 3.843 3.878 2.12 0 3.842-1.758 3.842-3.878A3.844 3.844 0 003.844 0z"/></symbol><symbol id="yaco" viewBox="0 0 57 32"><path d="M18.33 0l4.802 4.546-8.913-.005v22.054h23.296v-8.432l4.796 4.541V.001H18.329zm18.975 17.629L23.69 4.74h13.615v12.889zm-4.227 5.74H17.906V8.536h1.072v13.828h14.1v1.004zm-11.59 6.162l-.56 1.154-.56-1.154h-.47l.818 1.539v.897h.425v-.897l.816-1.539h-.468zm.705 2.436l.197-.567h.944l.199.567h.442l-.922-2.436h-.38l-.92 2.436h.44zm.669-1.919l.353 1.01h-.706l.353-1.01zm2.231.952a.557.557 0 00-.092.309c0 .205.072.372.216.5.145.127.338.191.579.191s.448-.065.622-.196l.137.162h.472l-.358-.423c.141-.192.211-.438.211-.738h-.353a.973.973 0 01-.102.447l-.47-.555.166-.12a.93.93 0 00.253-.254.542.542 0 00.077-.281.5.5 0 00-.171-.386.613.613 0 00-.435-.157.649.649 0 00-.468.167.594.594 0 00-.174.452.6.6 0 00.055.243c.038.084.104.185.199.304-.181.129-.302.241-.363.336zm1.099.538a.623.623 0 01-.385.137c-.122 0-.219-.035-.291-.105s-.109-.162-.109-.274c0-.13.067-.246.201-.348l.052-.037.532.627zm-.436-1.079c-.115-.142-.172-.259-.172-.353 0-.081.023-.149.07-.202s.11-.08.189-.08c.074 0 .134.023.182.069a.214.214 0 01.072.162.301.301 0 01-.104.236l-.052.042-.186.127zm3.964 1.324c.167-.146.263-.349.288-.609h-.422c-.022.174-.075.298-.159.373s-.209.112-.375.112a.472.472 0 01-.415-.207c-.094-.138-.141-.339-.141-.602v-.216c.002-.26.052-.457.151-.59a.495.495 0 01.425-.202c.158 0 .278.039.36.117.083.077.134.203.154.378h.422c-.027-.267-.122-.473-.286-.619s-.38-.219-.649-.219a.98.98 0 00-.529.142c-.152.095-.268.23-.35.405s-.122.378-.122.607v.227c.003.224.045.421.125.59s.194.301.341.393c.148.091.32.137.514.137.278 0 .5-.073.667-.217zm2.488-.342c.083-.181.124-.39.124-.629v-.135c-.001-.238-.044-.446-.127-.624s-.202-.317-.356-.411c-.153-.096-.328-.144-.527-.144s-.375.049-.529.146a.945.945 0 00-.356.417 1.484 1.484 0 00-.125.629v.137c.001.233.043.439.127.617a.966.966 0 00.358.413.983.983 0 00.529.144c.2 0 .376-.048.529-.144a.941.941 0 00.355-.415zm-.454-1.376c.103.144.154.351.154.621v.127c0 .274-.051.483-.152.626a.494.494 0 01-.432.214.506.506 0 01-.435-.219c-.104-.146-.156-.353-.156-.621v-.14c.002-.262.055-.464.157-.607a.501.501 0 01.43-.216c.187 0 .332.072.433.216z"/></symbol><symbol id="comp-tagline-here" viewBox="0 0 57 32"><path d="M26.489 1.806h-.084a9.985 9.985 0 00-.388-.014h-.28c-.244 0-.494.006-.741.019a.523.523 0 00-.056 0c-2.243.127-4.44.688-6.472 1.651l-.266.128v13.626l.623-.211a23.32 23.32 0 011.731-.513 21.155 21.155 0 014.982-.662v1.79a15.56 15.56 0 00-.655.019h-.051a19.948 19.948 0 00-3.833.588c-1.59.398-3.124.996-4.566 1.779V2.531a18.3 18.3 0 014.79-1.948 18.343 18.343 0 014.515-.582h.263c.314.008.621.022.909.044.759.053 1.511.173 2.25.358v1.762a13.947 13.947 0 00-2.179-.329l-.045-.004c-.152-.013-.304-.026-.446-.026zm3.101 1.801c.391.03.796.044 1.205.044a19.352 19.352 0 004.747-.609 19.57 19.57 0 004.565-1.781v17.164a18.313 18.313 0 01-4.792 1.948 18.486 18.486 0 01-4.515.581 13.772 13.772 0 01-3.425-.404V3.275c.265.061.537.117.814.164.455.077.934.133 1.401.167zm8.736.133l-.623.21c-.573.192-1.15.365-1.731.518a21.098 21.098 0 01-5.173.663c-.406 0-.78-.011-1.141-.034l-.497-.033v14.017l.427.038c.395.034.803.052 1.214.052a16.573 16.573 0 004.074-.527A17.08 17.08 0 0038.06 17.5l.266-.128V3.742zM17.642 25.977a.903.903 0 00-.693-.28 1.034 1.034 0 00-.4.075.91.91 0 00-.512.518 1.023 1.023 0 00-.072.387v2.335c-.006.165.026.328.092.479.055.12.135.226.233.313a.815.815 0 00.321.166c.113.032.231.048.349.049a.972.972 0 00.892-.61.951.951 0 00.075-.372v-.261h-.61v.208a.528.528 0 01-.036.208.359.359 0 01-.089.131.365.365 0 01-.128.067.425.425 0 01-.128.022.312.312 0 01-.286-.125.548.548 0 01-.081-.313v-2.177a.738.738 0 01.075-.349.311.311 0 01.299-.141.33.33 0 01.272.131c.068.09.104.2.101.313v.202h.604v-.238a1.093 1.093 0 00-.279-.737zM21.268 25.951a1.051 1.051 0 00-1.38 0 .961.961 0 00-.237.327 1.099 1.099 0 00-.089.452v2.239a1.08 1.08 0 00.089.459c.055.12.136.227.237.313a.94.94 0 00.322.197 1.028 1.028 0 00.728 0c.121-.044.233-.111.33-.197a.948.948 0 00.23-.313 1.08 1.08 0 00.089-.459V26.73a1.08 1.08 0 00-.089-.452 1.015 1.015 0 00-.23-.327zm-.285 3.018a.405.405 0 01-.121.324.445.445 0 01-.574 0 .397.397 0 01-.121-.324V26.73a.405.405 0 01.121-.324.445.445 0 01.574 0 .397.397 0 01.121.324v2.239zM26.03 29.969V25.73h-.587l-.771 2.244h-.011l-.777-2.244h-.581v4.239h.606V27.39h.011l.593 1.823h.302l.598-1.823h.011v2.579h.606zM29.471 26.027a.84.84 0 00-.343-.232 1.363 1.363 0 00-.439-.066h-.9v4.239h.604v-1.656h.311c.189.009.376-.031.545-.116a.882.882 0 00.332-.324 1.02 1.02 0 00.139-.369c.024-.16.035-.321.033-.482a2.421 2.421 0 00-.059-.606.898.898 0 00-.223-.39zm-.312 1.293a.547.547 0 01-.056.221.346.346 0 01-.156.149.619.619 0 01-.285.053h-.276v-1.441h.311a.578.578 0 01.272.053.349.349 0 01.142.157.62.62 0 01.053.236v.282c0 .099.006.2 0 .291h-.006zM32.332 25.73h-.495l-.934 4.239h.604l.177-.911h.824l.177.911h.604l-.957-4.239zm-.557 2.751l.297-1.537h.011l.296 1.537h-.604zM36.235 28.284h-.011l-.912-2.554h-.581v4.239h.604V27.42h.012l.923 2.549h.568V25.73h-.604v2.554zM39.926 25.73l-.486 1.685h-.012l-.486-1.685h-.64l.83 2.448v1.792h.604v-1.792l.83-2.447h-.64zM15.958 31.166h.291v.817h.198v-.817h.29v-.167h-.778v.167zM18.405 30.999l-.381.984h.21l.081-.224h.392l.084.224h.215l-.391-.984h-.21zm-.031.595l.134-.365.134.365h-.268zM20.824 31.62h.227v.127a.382.382 0 01-.234.083.244.244 0 01-.209-.093.411.411 0 01-.073-.257c0-.219.095-.329.283-.329.05-.005.099.008.14.037s.07.071.083.12l.195-.038c-.042-.192-.181-.289-.417-.289a.495.495 0 00-.344.127.494.494 0 00-.141.379.532.532 0 00.126.369.477.477 0 00.374.144.59.59 0 00.417-.157v-.388h-.427v.166zM23.295 30.999h-.199v.984h.69v-.167h-.49v-.817zM25.384 30.999h-.199v.984h.199v-.984zM27.427 31.656l-.403-.657h-.193v.984h.185v-.643l.395.643h.198v-.984h-.182v.657zM29.273 31.55h.49v-.167h-.49v-.216h.528V31h-.727v.984h.747v-.167h-.548v-.266zM33.75 31.387h-.388v-.388h-.198v.984h.198v-.43h.388v.43h.198v-.984h-.198v.388zM35.607 31.55h.492v-.167h-.492v-.216h.529V31h-.727v.984h.746v-.167h-.548v-.266zM38.126 31.55c.171-.027.258-.117.258-.274a.236.236 0 00-.096-.219.553.553 0 00-.288-.058h-.417v.984h.198v-.412h.039a.261.261 0 01.123.022.21.21 0 01.07.072l.215.313h.237l-.12-.192a.685.685 0 00-.218-.236zm-.199-.136h-.146v-.247h.156a.526.526 0 01.201.023c.014.013.026.029.033.046a.133.133 0 01-.005.111.128.128 0 01-.037.043.547.547 0 01-.201.023zM40.026 31.55h.49v-.167h-.49v-.216h.529V31h-.729v.984h.747v-.167h-.548v-.266z"/></symbol><symbol id="comp" viewBox="0 0 57 32"><path d="M16.607 31.394a.095.095 0 01.066.026l.17.162a1.389 1.389 0 01-.477.307 1.838 1.838 0 01-.676.11 1.798 1.798 0 01-.636-.103 1.388 1.388 0 01-.479-.291 1.283 1.283 0 01-.309-.449 1.488 1.488 0 01-.108-.576 1.347 1.347 0 01.445-1.027c.145-.127.318-.226.508-.293.209-.07.431-.105.655-.103.208-.004.415.027.608.094.168.063.322.151.456.26l-.142.173a.134.134 0 01-.036.031.094.094 0 01-.057.013.14.14 0 01-.061-.018l-.076-.046-.106-.059a1.169 1.169 0 00-.335-.103 1.418 1.418 0 00-.252-.018 1.355 1.355 0 00-.47.077 1.09 1.09 0 00-.369.217.988.988 0 00-.239.346c-.06.147-.089.301-.087.457a1.18 1.18 0 00.087.464.983.983 0 00.587.558c.138.05.287.075.436.074.086.001.173-.004.258-.015a1.029 1.029 0 00.559-.237.127.127 0 01.081-.029zM21.501 30.58a1.41 1.41 0 01-.114.573c-.069.166-.178.318-.319.444s-.312.226-.501.292a2.07 2.07 0 01-1.288 0 1.47 1.47 0 01-.498-.293 1.302 1.302 0 01-.322-.449 1.49 1.49 0 010-1.147c.072-.167.182-.321.322-.451.142-.123.311-.218.498-.282.414-.14.874-.14 1.288 0 .188.066.358.166.5.293a1.328 1.328 0 01.434 1.02zm-.445 0a1.214 1.214 0 00-.081-.46.943.943 0 00-.585-.561 1.484 1.484 0 00-.936 0 1.01 1.01 0 00-.358.217.94.94 0 00-.229.344 1.35 1.35 0 000 .921.94.94 0 00.587.559c.302.098.634.098.936 0 .136-.048.259-.121.358-.215a.956.956 0 00.227-.344c.057-.148.084-.304.081-.46zM24.84 31.062l.044.103c.017-.037.032-.07.049-.103a.987.987 0 01.055-.101l1.083-1.71c.021-.029.04-.048.061-.053a.267.267 0 01.089-.009h.32v2.781h-.379v-2.045-.087a.769.769 0 010-.096l-1.089 1.734c-.014.026-.036.048-.064.063s-.06.023-.093.023h-.061c-.033 0-.065-.008-.093-.023s-.05-.037-.063-.064l-1.121-1.745V31.962h-.367v-2.776h.32c.03-.002.06.002.089.009.026.011.047.03.059.053l1.106 1.712c.022.032.04.065.055.099zM28.914 30.924v1.042h-.424v-2.777h.945c.178-.003.356.017.528.061.137.034.264.093.373.173a.712.712 0 01.212.272c.05.113.074.234.072.355a.762.762 0 01-.307.633 1.077 1.077 0 01-.375.184 1.752 1.752 0 01-.511.064l-.513-.007zm0-.298h.513c.111.001.222-.013.328-.042a.707.707 0 00.237-.12.531.531 0 00.195-.418c.005-.077-.01-.154-.043-.226s-.084-.137-.148-.19a.909.909 0 00-.57-.149h-.513v1.145zM34.609 31.97h-.335a.156.156 0 01-.148-.09l-.288-.672h-1.447l-.299.672a.158.158 0 01-.148.091h-.335l1.271-2.782h.441l1.288 2.782zm-2.098-1.033h1.195l-.504-1.132a1.773 1.773 0 01-.095-.261l-.049.145a1.317 1.317 0 01-.047.118l-.5 1.13zM36.439 29.201a.185.185 0 01.064.05l1.854 2.097v-.098-2.062h.379v2.781h-.212a.199.199 0 01-.087-.017.232.232 0 01-.068-.052l-1.852-2.095a.769.769 0 010 .096v2.068h-.379v-2.781h.225a.196.196 0 01.076.013zM41.859 30.864v1.105h-.424v-1.105l-1.172-1.675h.379a.15.15 0 01.091.024.243.243 0 01.057.063l.733 1.081a1.43 1.43 0 01.129.247l.055-.12c.021-.044.045-.086.072-.127l.723-1.088a.306.306 0 01.055-.059.145.145 0 01.091-.028h.383l-1.174 1.683zM24.63 24.521c.184.02.371.037.559.052 2.859-1.111 5.277-2.93 6.953-5.228s2.534-4.975 2.469-7.696l-3.15-2.737c.641 2.896.341 5.89-.865 8.647s-3.272 5.168-5.965 6.963z"/><path d="M23.505 24.393l.085.015c2.878-1.789 5.072-4.286 6.299-7.17s1.429-6.021.582-9.006l-4.487-3.899c1.815 3.205 2.546 6.791 2.107 10.342s-2.029 6.921-4.585 9.718zM38.723 14.862c-.762 2.989-2.614 5.685-5.28 7.687a16.801 16.801 0 01-2.509 1.565c2.171-.554 4.166-1.534 5.832-2.865s2.958-2.975 3.776-4.808l-1.82-1.579z"/><path d="M38.009 14.422l-2.591-2.251c-.05 2.567-.889 5.075-2.432 7.264s-3.732 3.98-6.341 5.185h.013c.581 0 1.162-.03 1.739-.09 2.438-.865 4.592-2.24 6.269-4.004s2.826-3.861 3.343-6.104zM23.88 2.689L20.789 0c-2.763.928-5.14 2.559-6.819 4.679s-2.582 4.632-2.59 7.206c.01 2.844 1.112 5.604 3.131 7.843s4.839 3.829 8.015 4.518c2.835-3.001 4.495-6.709 4.738-10.586s-.942-7.72-3.385-10.971zM45.151 14.008c-.011-3.374-1.559-6.608-4.305-8.994s-6.468-3.731-10.351-3.74a16.433 16.433 0 00-5.248.849l18.926 16.443c.648-1.453.98-2.999.979-4.558z"/></symbol><symbol id="foster-peters" viewBox="0 0 57 32"><path d="M11.558 9.77h-.002c-1.889 0-3.42 1.361-3.42 3.04v.002c0 1.679 1.531 3.04 3.42 3.04h.002c1.889 0 3.42-1.361 3.42-3.04v-.002c0-1.679-1.531-3.04-3.42-3.04zM36.804 8.798c-.005-2.332-1.05-4.567-2.905-6.215S29.529.005 26.906 0c-2.625.004-5.14.932-6.996 2.582s-2.901 3.884-2.907 6.217v12.858s19.799-1.96 19.801-12.856v-.002zM1.203 25.877c.005 1.622.732 3.177 2.023 4.325s3.04 1.794 4.866 1.799c1.825-.005 3.574-.651 4.865-1.798s2.018-2.701 2.023-4.323v-8.947S1.204 18.298 1.204 25.878zm6.888 1.603c-.357 0-.705-.094-1.002-.27s-.528-.427-.664-.719c-.137-.293-.172-.615-.103-.926s.241-.597.494-.821.574-.377.924-.439c.35-.062.713-.03 1.042.091s.611.327.809.59.304.574.304.891c.001.211-.045.42-.135.615s-.223.373-.391.522c-.168.149-.367.268-.586.349s-.454.123-.692.123v-.006zM22.013 26.597h-1.329v1.373h-.692v-3.36h2.188v.561h-1.495v.868h1.329v.558zm3.328-.231c0 .331-.058.621-.175.87a1.321 1.321 0 01-1.251.78c-.278 0-.527-.067-.745-.201s-.388-.325-.508-.572a1.969 1.969 0 01-.182-.859v-.166c0-.331.059-.622.178-.872a1.34 1.34 0 01.505-.579c.218-.135.468-.203.748-.203s.529.068.745.203c.218.134.387.327.505.579.12.251.18.541.18.87v.15zm-.702-.152c0-.352-.063-.62-.189-.803s-.306-.275-.54-.275a.618.618 0 00-.538.272c-.126.18-.19.445-.192.794v.164c0 .343.063.609.189.798s.308.284.545.284a.61.61 0 00.535-.272c.125-.183.188-.449.189-.799v-.164zm2.947.874a.352.352 0 00-.138-.3c-.092-.071-.258-.145-.498-.221a3.585 3.585 0 01-.57-.231c-.381-.206-.572-.484-.572-.833 0-.182.051-.343.152-.485.103-.143.25-.255.441-.335.192-.08.408-.12.646-.12.24 0 .454.044.642.132a1 1 0 01.436.367.955.955 0 01.157.54h-.692a.45.45 0 00-.145-.358c-.097-.086-.233-.129-.408-.129-.169 0-.301.036-.395.108a.336.336 0 00-.141.282c0 .109.055.201.164.275.111.074.273.143.487.208.394.118.681.265.861.441s.27.394.27.655a.81.81 0 01-.33.685c-.22.165-.516.247-.888.247-.258 0-.494-.047-.706-.141a1.128 1.128 0 01-.487-.39.999.999 0 01-.166-.572h.695c0 .371.221.556.665.556.165 0 .293-.033.385-.099a.331.331 0 00.138-.282zm3.695-1.917h-1.029v2.799h-.692v-2.799h-1.015v-.561h2.737v.561zm2.419 1.343h-1.329v.9h1.56v.556h-2.252v-3.36h2.248v.561h-1.555v.801h1.329v.542zm1.881.226h-.552v1.23h-.692v-3.36h1.249c.397 0 .703.088.919.265s.323.427.323.75c0 .229-.05.421-.15.575a1.01 1.01 0 01-.45.365l.727 1.373v.032h-.743l-.63-1.23zm-.552-.561h.559c.174 0 .308-.044.404-.132a.48.48 0 00.143-.367.504.504 0 00-.136-.374c-.089-.091-.227-.136-.413-.136h-.556v1.009zm4.196.607v1.184h-.692v-3.36h1.311c.252 0 .474.046.665.138.192.092.34.224.443.395.103.169.155.362.155.579 0 .329-.113.589-.339.78-.225.189-.536.284-.935.284h-.607zm0-.561h.618c.183 0 .322-.043.418-.129.097-.086.145-.209.145-.369 0-.165-.048-.298-.145-.399s-.231-.154-.402-.157h-.635v1.055zm4.38.289h-1.329v.9h1.56v.556h-2.252v-3.36h2.248v.561h-1.555v.801h1.329v.542zm3.212-1.343h-1.029v2.799h-.692v-2.799H44.08v-.561h2.737v.561zm2.419 1.343h-1.329v.9h1.56v.556h-2.252v-3.36h2.248v.561h-1.555v.801h1.329v.542zm1.881.226h-.552v1.23h-.692v-3.36h1.248c.397 0 .703.088.919.265s.323.427.323.75c0 .229-.05.421-.15.575a1.015 1.015 0 01-.45.365l.727 1.373v.032h-.743l-.63-1.23zm-.552-.561h.558c.174 0 .308-.044.404-.132a.48.48 0 00.143-.367.504.504 0 00-.136-.374c-.089-.091-.227-.136-.413-.136h-.556v1.009zm4.069.909a.352.352 0 00-.138-.3c-.092-.071-.258-.145-.498-.221a3.585 3.585 0 01-.57-.231c-.382-.206-.572-.484-.572-.833 0-.182.051-.343.152-.485.103-.143.25-.255.441-.335.192-.08.408-.12.646-.12.24 0 .454.044.642.132a1 1 0 01.436.367.955.955 0 01.157.54h-.692a.45.45 0 00-.145-.358c-.097-.086-.233-.129-.409-.129-.169 0-.301.036-.395.108a.336.336 0 00-.141.282c0 .109.055.201.164.275.111.074.273.143.487.208.394.118.681.265.861.441s.27.394.27.655a.81.81 0 01-.33.685c-.22.165-.516.247-.888.247-.259 0-.494-.047-.706-.141a1.128 1.128 0 01-.487-.39.999.999 0 01-.166-.572h.695c0 .371.222.556.665.556.165 0 .293-.033.385-.099a.331.331 0 00.138-.282z"/></symbol><symbol id="brand" viewBox="0 0 57 32"><path d="M9.592 26.742c.172.195.263.438.258.688.009.163-.023.326-.092.476s-.175.285-.308.393a1.844 1.844 0 01-1.163.317H6.242v-4.361h2.003c.396-.024.788.078 1.11.29.129.099.232.224.299.366s.098.296.089.45a.953.953 0 01-.233.667 1.11 1.11 0 01-.61.341c.271.045.516.177.691.373zm-2.399-.658h.856a.862.862 0 00.544-.145c.064-.053.114-.12.146-.193s.045-.153.038-.233a.5.5 0 00-.181-.426.882.882 0 00-.561-.147h-.842v1.144zm1.484 1.672c.069-.055.123-.123.158-.2s.05-.16.045-.243c.005-.084-.011-.168-.047-.246s-.091-.147-.16-.202a.943.943 0 00-.582-.158h-.898v1.199h.91a.97.97 0 00.575-.151zM13.687 28.617l-1.114-1.704h-.419v1.704h-.959v-4.361h1.815c.457-.029.91.103 1.263.371.254.237.407.549.431.879s-.08.659-.296.925c-.224.235-.53.391-.866.443l1.187 1.743h-1.042zm-1.534-2.299h.784c.544 0 .817-.22.817-.66.006-.09-.009-.18-.044-.264s-.088-.161-.156-.226a.903.903 0 00-.617-.177h-.793l.009 1.327zM18.926 27.739h-1.91l-.337.878h-1.005l1.754-4.312h1.087l1.747 4.312h-1.005l-.33-.878zm-.256-.66l-.698-1.841-.698 1.841h1.396zM25.485 28.617h-.952l-2.134-2.965v2.965h-.949v-4.361h.949l2.134 2.983v-2.983h.952v4.361zM30.916 27.573a1.988 1.988 0 01-.861.769 3.016 3.016 0 01-1.338.275h-1.694v-4.361h1.694a3.09 3.09 0 011.338.268c.364.168.664.433.861.761.196.355.298.747.298 1.144s-.102.789-.298 1.144zm-1.089-.104c.272-.29.421-.659.421-1.041s-.149-.751-.421-1.041a1.753 1.753 0 00-1.191-.371h-.661v2.823h.661c.435.025.863-.108 1.191-.371zM19.522 0s12.283 4.246 12.022 10.39v10.392S19.271 16.534 19.527 10.39L19.522 0zM42.486 18.349c2.32-1.462 5.003-2.367 7.804-2.633v-3.253c-3.227 1.139-5.965 3.204-7.804 5.886z"/><path d="M41.093 19.329c1.899-3.5 5.19-6.202 9.197-7.548V2.407S32.798 8.455 33.168 17.204v14.795s.779-.271 2.006-.778c0-.473 0-.95.056-1.429.362-4.062 2.471-7.826 5.863-10.464z"/><path d="M39.429 24.825a14.12 14.12 0 01.612-3.029c-2.112 2.279-3.391 5.106-3.657 8.085-.026.281-.04.562-.047.852.993-.437 2.15-.982 3.364-1.623a14.022 14.022 0 01-.272-4.284zM40.125 24.878a13.401 13.401 0 00.216 3.879c4.779-2.618 10.149-6.664 9.942-11.553v-.426c-3.414.35-6.609 1.716-9.093 3.89a13.582 13.582 0 00-1.066 4.21z"/></symbol><symbol id="comp-tagline" viewBox="0 0 57 32"><path d="M28.584 15.204a1.773 1.773 0 01-.364-1.199v-1.738c0-.533.121-.938.362-1.214s.657-.415 1.245-.414c.553 0 .945.118 1.177.354.253.301.376.669.348 1.039v.408h-.989v-.414a2.118 2.118 0 00-.029-.405.39.39 0 00-.141-.24.577.577 0 00-.358-.094.607.607 0 00-.377.099.463.463 0 00-.164.265 2.073 2.073 0 00-.039.43v2.109c-.016.204.028.407.127.592.049.063.117.112.197.144s.168.043.255.033a.539.539 0 00.35-.095.421.421 0 00.147-.256c.023-.14.033-.281.031-.423v-.428h.989v.391c.028.387-.092.771-.342 1.092-.227.258-.614.387-1.183.387s-.999-.138-1.243-.424zM32.702 15.221c-.25-.271-.375-.665-.375-1.186v-1.828c0-.516.125-.907.375-1.172s.667-.397 1.253-.396c.581 0 .997.132 1.247.396.25.265.377.656.377 1.172v1.828c0 .516-.127.912-.381 1.184s-.667.408-1.243.408-1.001-.138-1.253-.407zm1.714-.438c.089-.169.13-.355.119-.541v-2.238a1 1 0 00-.117-.53c-.05-.064-.12-.114-.202-.146s-.172-.042-.261-.031c-.089-.011-.179 0-.261.031s-.153.082-.203.145a.974.974 0 00-.119.53v2.249a1 1 0 00.119.541c.058.057.129.103.209.134a.702.702 0 00.508 0 .615.615 0 00.209-.134v-.011zM36.768 10.693h1.065l.801 3.373.819-3.373h1.036l.104 4.868h-.766l-.082-3.383-.79 3.383h-.614l-.819-3.396-.076 3.396h-.774l.096-4.868zM41.787 10.693h1.658c.956 0 1.433.461 1.433 1.382 0 .883-.503 1.323-1.509 1.322h-.565v2.164H41.78l.006-4.868zm1.417 2.08a.803.803 0 00.563-.154.79.79 0 00.147-.55 1.535 1.535 0 00-.049-.442c-.015-.048-.04-.094-.075-.134s-.079-.073-.129-.098a1.055 1.055 0 00-.457-.078h-.397v1.455h.397zM46.355 10.693h1.1l1.128 4.868h-.954l-.223-1.122h-.981l-.229 1.122h-.968l1.128-4.868zm.94 3.181l-.383-2.043-.383 2.043h.766zM49.494 10.693h.717l1.372 2.777v-2.777h.85v4.868h-.682l-1.38-2.899v2.899h-.878l.002-4.868zM54.422 13.704l-1.141-3.005h.96l.696 1.93.653-1.93h.94l-1.126 3.005v1.856h-.983v-1.856zM30.165 17.689v.255h-.835v1.978h-.35v-1.978h-.839v-.255h2.025zM32.784 19.922h-.27a.127.127 0 01-.076-.021.122.122 0 01-.045-.051l-.242-.53h-1.159l-.242.53a.14.14 0 01-.037.06.123.123 0 01-.076.021h-.27l1.024-2.233h.356l1.036 2.224zm-1.696-.829h.967l-.41-.909a1.65 1.65 0 01-.076-.21l-.039.118-.037.094-.405.907zM34.549 19.702a1.145 1.145 0 00.356-.027 1.23 1.23 0 00.284-.096v-.502h-.41a.082.082 0 01-.056-.018c-.007-.005-.012-.011-.016-.018s-.005-.015-.005-.022v-.171h.794v.856a1.47 1.47 0 01-.432.182 1.83 1.83 0 01-.256.046c-.099.01-.199.014-.299.014a1.572 1.572 0 01-.516-.083 1.275 1.275 0 01-.41-.233 1.073 1.073 0 01-.264-.354 1.112 1.112 0 01-.094-.463 1.165 1.165 0 01.092-.467c.059-.132.149-.253.264-.354.117-.1.256-.179.41-.232.175-.057.361-.085.549-.083.095 0 .191.006.285.019.083.012.165.031.244.057a1.206 1.206 0 01.383.205l-.098.138a.094.094 0 01-.08.043.132.132 0 01-.063-.018 1.262 1.262 0 01-.1-.053.836.836 0 00-.137-.06 1.334 1.334 0 00-.188-.05 1.51 1.51 0 00-.26-.019 1.223 1.223 0 00-.395.062.856.856 0 00-.301.177.763.763 0 00-.19.278 1.048 1.048 0 000 .744.872.872 0 00.504.458c.13.039.268.054.405.044zM37.812 19.667h1.118v.255h-1.46v-2.233h.35l-.008 1.978zM40.093 19.922h-.35v-2.233h.35v2.233zM41.396 17.7c.021.01.039.024.053.041l1.497 1.683a.534.534 0 010-.08v-1.663h.305v2.242h-.176a.164.164 0 01-.076-.012.211.211 0 01-.055-.042l-1.495-1.681v1.736h-.293v-2.233h.182c.02 0 .039.004.057.011zM45.829 17.689v.246h-1.241v.737h1.005v.237h-1.005v.762h1.241v.246h-1.601V17.69h1.601zM9.138 3.901l15.547 3.811v13.355L9.138 17.258V3.901zm-.997-1.138v15.144l17.539 4.301V7.066L8.14 2.763z"/><path d="M17.542 29.237L.001 24.933V9.791l17.541 4.303v15.144z"/><path d="M8.432 3.73l15.344 3.763-6.526 5.635L1.903 9.363l6.528-5.634zm-.291-.967L0 9.791l17.541 4.303 8.139-7.028L8.141 2.763zM18.528 28.385l7.152-6.176-7.152-1.755v7.931z"/></symbol></defs></svg>